<svg xmlns="http://www.w3.org/2000/svg" width="1707" height="409" viewBox="0 0 1707 409"><g style="display:inline"><path d="m176 408 2 1h-1q-3 0-1-1m15-2 2-1h1q-2 3-3 1m100-1 3-1-1 1-3 2zm-154-1-1-2zq1 4-1 1m129-1c-6-7-13-19-12-21 0-2 11-8 11-7l-5 4q-5 2-5 4l7 12q11 15 4 8m457 0q-7-5-5-10 4-3 8 2c4 6 17 4 15-2q-1-2-7-4-13-3-15-7-4-6 2-13c4-3 5-4 11-4q6 0 11 4 5 5 3 6-2 5-8 0c-4-5-13-3-12 2q-1 3 9 5 15 3 13 12 0 6-5 8-10 6-20 1m17-2q5-1 6-6 1-7-7-10-15-4-15-6v-6c2-3 13-3 16 0q6 4 2-2c-7-7-22-3-22 5q0 7 13 11 11 2 9 9c-1 7-13 7-18 1q-5-5-3 1c0 2 9 6 12 6zm105 3-7-5q-4-4-3-13 0-15 8-19c5-2 14-2 19 1 11 7 11 28 0 35q-8 3-17 1m12-1c13-5 16-22 6-32q-5-4-11-4c-6 0-7 1-11 5-8 8-6 25 4 30 6 2 7 2 12 1m-11-4c-6-2-8-17-3-24q1-5 9-4 11-1 12 11 2 18-12 18zm14-4q3-6 2-14c-2-8-11-12-17-6-5 5-4 17 2 22q7 3 13-2m192 8q-7-6-6-10 4-3 8 2 2 4 7 4 10-1 8-7l-10-4-11-5c-2-3-2-10 0-12 6-8 22-7 26 1l1 5q-3 1-8-2c-3-4-10-4-12-1q-5 4 9 8 13 3 13 11c0 10-14 16-25 10m19-3c7-5 4-13-6-16q-18-3-12-11c1-3 15-3 16 0l3 2q2 0-2-4t-9-4-10 4l-3 6q1 7 13 10 11 2 10 9c-1 6-15 7-18 1q-4-4-5-1c0 1 6 6 9 7q6 1 14-3m278 3c-12-7-11-30 0-36 9-4 22 0 23 8q-1 8-8 0-6-6-12 0c-7 7-4 24 5 24l7-4q7-5 8-1c0 9-14 14-23 9m18-4 2-4-4 2q-3 3-8 3-10 0-10-15 0-14 10-14l8 2q6 6 4 0c-2-3-10-7-14-6-9 3-15 14-12 23q2 9 8 12 8 4 16-3m170 4q-8-4-8-18 1-19 18-20 5 0 10 5l4 6q-2 5-8-1c-9-9-19 2-16 16q6 13 16 4c5-5 10-4 6 2-4 8-15 11-22 6m18-4 3-4-5 2q-6 6-14 1c-4-3-5-12-4-19 2-8 13-11 18-6q6 5 5 1c-1-3-8-7-13-6q-5 0-9 4-5 3-5 12-2 12 8 17 8 6 16-2m121 3q-5-3-5-6 0-7 7-1 8 6 14 2 4-6-8-9-13-3-13-11 0-12 15-12 7 0 10 4l4 6q-3 5-9 0c-3-4-10-4-12-1q-4 5 8 7 18 5 13 18c-4 6-17 8-24 3m19-1q6-4 3-11c-1-3-3-4-14-8q-10-3-7-8c2-4 15-4 16-1l2 2q6-1-2-6-10-4-18 2l-3 6q1 7 13 10 11 2 10 9c-1 6-15 7-18 1l-3-2q-3-1 0 3c3 5 14 7 21 3m-1398 2 4-2-1 2zm168 0-1-18q-1-18 2-18 1-2 12-1 10 0 13 3 6 8 2 14-3 2 0 7 2 5 1 9 0 5-3 4-4 1-4-5 0-10-8-9-7-1-6 5l-1 7q-3 5-7 2m6-8q-1-10 9-7 9 0 8 8l2 5c3 1 2-7 0-12q-3-3 0-7 6-6 0-11c-3-3-4-3-13-3h-10v17c0 14 0 16 2 16q2 1 2-6m0-13q-1-6 1-10c2-2 11-2 14 0q3 2 2 7c-1 4-1 4-8 5q-8 1-9-2m14-1q5-6-6-7-7-2-6 3l1 5q5 2 11-1m51 22-1-19c0-20-1-19 16-18 10 0 11 0 11 3q3 4-12 5-8-1-7 3-1 4 9 4 8 0 9 2 2 5-9 5c-9 1-9 1-9 5v4h10q12 1 10 4c0 2-1 2-13 3zm25-2-10-2h-10v-6c0-7 1-8 11-8q7 0 6-1l-9-1h-8v-6q-1-7 12-6 7 0 7-2c0-2-22-1-23 1s0 30 1 31c1 2 23 1 23 0m51 1-10-36q6-5 10 14l5 11 5-12q5-18 9-13c1 2 0 6-4 20-6 16-7 17-10 18zm12-15q7-21 4-19l-3 8c-5 15-6 18-8 18q-2 2-6-10l-3-13q0-3-4-2l2 9 5 15q4 10 7 9 2-1 6-15m46 15-1-17q0-23 6-19c2 1 2 3 2 19 0 18 0 18-3 19zm5-17-1-17q-2-1-2 17t2 16zm114 18-1-18c0-19 1-21 6-19 2 1 2 4 2 19-1 17-1 18-3 19zm4-18-1-17q-2 1-2 15c-1 15 0 18 2 18zm116 18-1-18q0-18 2-18 5-5 13 9c9 16 9 16 9 3q0-16 6-13c2 1 2 3 2 19l-1 18h-4c-3 0-4-1-10-11l-8-12-1 12c-1 10-1 11-3 12zm29-19q1-16-2-16l-1 10-2 13q-3 3-7-5-4-7-5-5c0 1 11 20 13 21l3-1q2 0 1-17m-24 5c1-12 1-12 4-11h3l-2-5q-3-5-6-5c-2 0-2 1-2 17l1 16q2 0 2-12m67 13-1-19 1-17h10q18-2 17 3 1 4-12 4c-8 0-8 0-8 4 1 4 1 4 9 4q9 0 9 2 3 5-9 5c-8 1-8 1-8 5v4h10q12 1 10 4c0 2-1 2-14 3q-14 1-14-2m25-1q0-2-10-2h-9v-6c0-7 1-8 11-8q6 0 5-1l-8-1h-8v-6c0-6 1-6 11-6q7 0 7-2l-11-1-12 1v15q-1 15 1 17 1 2 12 1zm212 2-1-15v-15h-3l-7-2q-3-1 0-4 0-2 14-2 15 0 15 2 3 3-1 4l-6 2h-4v15c0 14-1 15-3 16zm6-16c0-15 1-16 7-16l4-2-14-1-13 1q0 2 5 2c6 0 7 2 7 18q-1 13 2 12zm51 15v-36h11q18-1 17 3 1 4-12 4-12-1-9 6 0 3 10 2c8 0 8 0 8 3q0 3-9 4h-8v9h10q13-1 10 5c-1 3-27 3-28 0m26-1-10-2-10-1-1-4q-1-10 10-9 15-1-1-3h-8l-1-5c0-5 1-6 12-6q8 0 8-2l-12-1-11 1-1 15 1 17q2 2 13 1zm112 2-1-18c0-19 0-20 6-20l9 12 8 12 1-11q-1-13 2-12 7-4 6 18c0 18 0 20-5 20q-4 0-9-9l-6-10-3-6-1 12c-1 11-1 12-3 13zm28-19-1-16q-2 1-2 13c-1 11-1 11-4 11q-3-1-2 2c1 3 6 9 8 8zm-24 7q0-23 9-8 8 13-1-5-5-11-8-10c-3 1-3 2-3 15-1 15 0 18 2 18zm67 12-1-18c0-19 0-21 6-19 1 1 2 4 1 19 0 17 0 18-3 19zm5-18c0-14-1-16-2-16-2 0-2 2-3 14 0 16 0 19 3 18q2 0 2-16m111 17c0-3 10-33 12-35q2-2 5-1c3 0 4 2 10 18q6 17 5 19-4 2-8-3 0-5-8-4-8-1-8 4c-2 4-8 6-8 2m6-4q1-4 10-3 9-1 10 3 3 5 5 3l-6-17c-5-15-6-16-9-16-3 1-4 3-8 15l-6 16c-2 4 3 3 4-1m5-10c0-5 3-12 5-13s5 7 5 12q1 4-5 4t-5-3m8 0c1-1-2-9-3-9s-4 9-3 10q3 1 6-1M195 401q0-3 1-1l-1 2zm112-2 3-2-1 2zm11-5q11-5 3-12l-4-6 9-9 2-2-7 8q-5 3 1 9l3 6c0 3-9 9-12 9zm-126-5 3-3q2-1 0 0zq-1 3-1 0m-60-5q-4-1 0-1l3 1 1 1zm74-1h4l-2 1zm-86-3 2 1h-1q-3 0-1-1m97 0 3 1h-2q-3 0-1-1m-43-2 2-2zq-3 0 0-1M60 364l-13-15zm20 15 4-6 5-5q3 0 0 1l-4 5zq-1 1 0 0m25-3v-1l3 1 1 1zm130-1 3-2-1 2zm-136-2 3 1 1 2zm168 1 12-9a198 198 0 0 0 51-51 200 200 0 0 1-63 60m-22-4 4-2q5-2 1 1-5 3-5 1m11-5q0-2 3-2l2-1-2 2zm-67-2h3q2 1-1 1zm-21-1h5zm41 0h5zm-49-2 2 1h-1q-3 0-1-1m60 0 2 1h-1q-3 0-1-1m43 1 5-4 4-2c-1 2-9 7-9 6m1025-1q2-5 8-5 3 1-1 4-6 4-7 1m-1136-1h4l-2 1zm74 0h4l-2 1zm-80-1h3l-2 1zm87 0h3zm-95-2-1-1 5 1 1 1zm100 0 3 1h-2q-2 0-1-1m97-1 3-3-1 3-3 2zm-60-2 6-6q5-4 4-2zm-152-2-1-2 3 2 1 1zm138-2 8-3-14 6zm82-6q5-6 8-7v1l-6 6-5 7zm-228 4-2-2 4 2 2 2zm353 1-1-44c0-39 0-44 2-45h42c46 0 49 0 55 11 7 10 6 28-1 36l-4 4 3 3c5 5 7 9 7 22 0 14-1 14-8 14q-6 0-5-14 2-16-8-18l-37-1-32 1-1 15q0 15-2 16c-1 1-7 2-10 0m10-18 1-15h35c46 0 46 0 46 21v11l4-1h5v-9q2-18-6-22-6-3 1-10c7-8 7-23 1-34-6-10-7-10-55-9h-41l-1 41 1 42q0 2 5 1h4zm1-26v-34h73l3 4c7 7 6 23-1 29-4 2-5 2-39 2zm75-4c3-4 5-16 1-22-3-7-8-8-43-7h-31l-1 15 1 16c0 2 7 2 35 2 34-1 35-1 38-4m33 48c-1 0-2-10-2-44 0-39 1-44 2-45q6-1 10 1c2 3 2 85 0 88q-4 2-10 0m9-44v-43l-4 1h-5v83l5 2h4zm32 43q-15-4-19-15-2-5-2-29c0-21 1-24 3-30 6-12 16-15 53-15 32 0 40 2 47 9 6 7 8 15 7 41 0 19-1 23-3 27-6 11-17 14-52 14-20 0-27 0-34-2m60 0q19-3 24-13c3-6 3-8 3-30s0-24-3-30c-6-11-17-14-49-14-30-1-43 3-50 12-6 8-6 53 0 63q6 9 23 12zm-56-10c-11-3-13-7-13-34 0-34 1-34 43-34 43 0 43 0 43 35s1 34-40 34zm64-3c6-3 7-9 7-31s-1-26-8-30c-8-4-58-4-66 0q-8 3-9 25 0 20 4 32c3 6 11 7 41 7 22 0 27-1 31-3m93 13q-10-3-13-6c-3-4-6-13-5-18q-1-4 6-4 7-1 7 5c2 12 6 13 37 13 25 0 32-1 36-5 3-5 2-14-1-17s-8-4-35-5c-30-1-40-4-45-15-6-11-2-28 8-33 7-3 27-5 46-4 24 1 33 5 38 15q3 11-1 14-10 3-11-5-1-6-7-10-4-2-28-2c-25 0-29 1-33 6-2 3-2 11 1 14 4 7 8 7 38 9 31 1 36 2 42 9 3 6 4 20 1 27-6 12-15 14-49 14-18 0-25 0-32-2m56 0 15-4c15-7 14-36-2-40l-34-3c-29-1-33-2-37-8-3-4-2-14 0-18q2-3 6-4c6-2 54-1 58 0q5 2 7 12 0 4 5 3 7 1 4-9c-4-10-11-14-31-16-17-2-40 0-49 3-16 7-16 32 0 40q7 5 43 6c24 1 25 1 28 4q3 3 2 11 0 9-4 11-9 6-43 5c-23-1-27-3-30-13q-3-11-10-5-2 1 1 10 1 9 9 10l14 5zm28 1a646 646 0 0 1 45-88l11-1 9 1a765 765 0 0 1 45 88l-7 1c-4 0-5-1-10-11l-6-10h-64l-4 8-6 11q-6 4-13 1m17-12 5-9h67l5 10c5 9 5 10 10 10l4-1-8-17-29-55-7-13-9 1h-10l-7 15-36 69h5q4 2 10-10m12-20 11-25c11-20 13-23 15-23a247 247 0 0 1 26 47c1 2-4 2-25 2zm50-2a256 256 0 0 0-24-43c-2 0-24 40-24 43q-2 3 24 2 25 1 24-2m39 33q-2-4-2-43t2-43q1-2 9-2h9l38 38 39 38 1-38v-37l3-1h7l3 1v44c0 49 1 45-12 45h-7l-37-38-39-38-1 36-1 38q-1 3-6 2-4 0-6-2m10-38c0-33 1-37 3-38 1-1 11 9 40 37l37 39 9-1h8v-84h-9l-1 38c0 35 0 37-3 37-1 0-17-15-39-38l-37-38h-17v86h9zm163 39-1-44c0-39 0-44 2-45h38c38 0 43 0 49 6q8 7 8 22 1 18-11 25l-5 3-35 1-34 1v15q0 16-2 16zm9-17q0-15 2-17l34-1c32 0 33 0 38-3q12-5 11-23 0-16-9-22c-4-3-5-3-44-3h-40l-1 41 1 42q1 2 4 1h4zm1-27v-34h33l33-1 4 4c3 2 3 4 4 14 0 10 0 10-4 14l-4 4h-33zm68-3q4-3 4-9 2-15-5-19c-4-2-7-2-35-2h-31v31c1 2 8 2 32 2 31 0 32 0 35-3m26 47-1-44c0-39 0-44 2-45 3-1 79 0 81 1l2 5-1 5-35 1h-35v26h34l34 1v11h-69v27h36l35 1 1 5q1 5-2 6c-1 1-79 2-82 0m82-5v-4h-35l-36-2q-2-1-2-14c0-12 1-14 3-15l35-1c27 0 32-1 33-2l-1-4c-2-2-7-2-35-2-29 0-33-1-34-2l-1-13 1-13c1-1 5-2 35-2 29 0 35 0 36-2q2-2 1-4c0-1-6-2-41-1h-40l-1 41 1 42c0 1 9 2 41 1h40zm12 5c-3-3-3-86 0-88l44-1c38 0 42 1 47 3 9 5 13 14 15 37 0 12-2 29-6 38q-4 8-19 11c-11 2-79 2-81 0m85-3q11-3 15-15c3-9 4-42 1-52q-4-13-15-16l-45-1h-40v86h39q39 0 45-2m-72-7c-1-1-2-9-1-35v-33h34c32-1 34-1 38 2 7 4 9 9 9 31q0 21-2 25c-4 9-6 10-44 10zm70-4c7-3 9-10 8-33-1-31-1-31-46-30h-32v63c1 3 63 3 70 0m38 14c-2-3-2-85 0-88l42-1c37 0 42 0 46 2q14 7 14 27 1 13-6 19l-4 4 3 2q8 4 7 22c0 14 0 14-7 14-5 0-6-2-6-15 0-10 0-12-3-14-4-4-8-4-42-4l-32 1v15q0 16-2 16-6 3-10 0m10-18v-15h36c45 0 46 0 46 21v11l4-1h5l1-9c0-12-1-16-6-21l-5-6 4-5c8-7 9-21 3-33-6-11-6-11-54-11h-42v86l4-1h5zm1-26v-34h34c42-1 43 0 46 13 1 7-1 16-5 19s-4 3-39 3zm71-2q7-3 7-15t-9-15l-36-1h-32v31c1 3 65 3 70 0m58 46q-19-3-24-15c-3-6-4-40-2-51q2-15 13-19c9-4 36-6 59-5 26 2 34 7 36 22q0 10-1 1-3-14-16-18c-8-3-35-5-47-4-25 2-34 5-39 13-2 4-3 8-3 27-1 35 1 41 18 46 11 3 59 3 70 0q14-5 16-17 2-11 2-1l-3 10q-4 8-19 11c-7 1-53 2-60 0M43 344l-2-6q1-3 2 1l2 6v2q-2 0-2-3m65 0v-1l2 1q2 3-2 0m164 0 2-1zq-3 0 0-1m-178-8-12-8 23 14zm182 6 5-3 6-2-6 3zm14-2q6-7 1-5-6 2-1-1 5-4 6-1l-4 5zm71 1h3q6 3 14-14l5-6c0 2-8 14-11 18q-6 6-11 2m-6-2-1-2 3 2 1 1zm1265-2q-6-1-9-7c-2-5-2-8-2-27 0-34 0-34 42-34 44 0 43 0 43 34 0 35 0 35-42 35zm61-2c10-3 12-6 12-32 0-21-1-25-7-29-7-5-59-5-68-1-6 3-8 10-8 30q0 27 6 30c5 3 14 4 35 4q24 1 30-2m-1562 1q-3-1 0-2 4 1-7-8l12 10q0 3-5 0m-76-2 13-18-4 6zm68-1q-3-3 1-1 6 3 3 3zm-13-8q-8-5-2-2l7 5zm-27-6q-11-10-14-5v-1l4-2c2 0 21 16 19 16zm16-1-4-4zl4 4zm-17-15-3-3 16 15zm315 6 1-1v2zm-50-6 4-7-2 7-4 6zm52-1q0-3 1-1l-1 3zm-302-4-3-3zl3 3zm-5-6q-3-3 0 0l3 2q0 2-3-2m260 1 1-2 1 2q-2 3-2 0m46-5q-1-3 1 0l1 2zm-333-2-3-4zl3 4zm23 2-2-5 3 3q3 6-1 2m267 1 1-4h1l-1 3zm35-3h4zm-8-3v-3q1-2 1 1l2 3q3 1 0 1zm-323-6-3-4 4 4 2 4zm300 1 1-3 1-1-1 3zm-279-3-1-3q2 0 2 3l1 2zm303-1q0-3 1-2v4q-1 1-1-2m-22-4 1-1v3zm-284-2q-1-3 0 0l1 2zm-48-2q-8-9-2-3 4 5 6 5 3 1 0 1zm22-1-4-4q-2-1 1-1zl2 4q-2 0-2-3m333 0q0-3 1-1v2q-1 1-1-1m-344 0q0-2 3-2l2-1-2 2zm324-4q0-3 1-1v2q-1 1-1-1m-154-1-12-4c-6-3-19-16-19-19 0-2 14-12 17-12l6 4q9 10 23 10t14-8c0-7-3-9-20-13q-33-7-36-24c-3-9 0-23 9-30 11-11 37-13 55-4q15 9 15 15l-15 12-7-3q-11-7-20-8l-7 2q-4 2-4 6 0 8 17 11 48 11 39 41-5 15-20 22c-9 3-27 4-35 2m37-6q14-6 17-20 3-13-6-22c-6-6-11-9-28-13-16-5-20-7-22-12-5-12 14-17 30-7 9 6 9 6 17-2l6-5-6-5q-12-10-29-12c-25-2-42 10-42 31q-1 12 11 19c5 4 8 5 29 11q17 5 17 12 1 4-3 8c-3 3-4 3-13 3q-16 0-24-8l-5-4c-3 0-15 8-15 10s11 12 16 15c10 5 15 6 29 5 12 0 14-1 21-4m-176 3q-3-8 0-2l2 4zm26 0-1-35 1-33h25l1 6v7h6q13 1 20-4 6-7 0-16c-2-3-3-3-27-3l-25-1v-21h28c28 0 29 0 37 3q14 7 16 23c3 14-3 28-13 34q-5 2-5 4l9 18 10 18q1 2-14 2-13 0-15-3l-10-17c-7-14-8-14-12-14h-5v16l-1 17H98q-14 1-13-1m23-1 1-18v-15l4-1c6-2 9 1 18 17q7 15 10 17c3 2 21 2 22 0q1-3-8-18l-10-18 6-5c12-6 17-21 12-35q-3-15-18-19c-6-2-12-3-32-3-28-1-28-1-27 10v7l23 1c24 1 28 2 31 7 2 4 2 13-2 17-3 3-4 3-16 3h-12v-5l-2-7c-2-2-19-2-21 0s-2 62 0 65l10 1zm151-32v-33h21v15h12c14 1 16 0 20-5q4-8 1-16c-2-8-5-8-31-9l-23-1v-16h26c25 0 26 1 33 4q13 6 16 19 6 21-10 34-8 6-32 8l-12 1v31h-22zm110 22q0-5 1-2v5zm225 1 2-1 2 1q-3 2-4 0m-240-9 1-1v3zm0-45 1-1v2zM15 177q0-7 1-4v9q-1 3-1-5m41 1 2-3q2-2 1 2-2 5-3 1m300-2 1-1 2 2h-2zM57 163l1-1v3zm281-43-3-3zl3 4zM117 83l3-2q3-2 0 1t-3 1m104-24 1-2 1 2-2 1zm33-1h3l-2 1zm-26-19h9q4 1-4 1zm-95-5-3-4zl3 4zm108-8 1-1v3z" style="fill:#e8e8ea"/><path d="M195 401q0-3 1-1l-1 2zm274-1v-31l8-1q16 0 17 9l-1 4q-2 0-2-3 1-9-11-7-8 0-8 4l1 7q0 4 9 4h7l-8 1h-8l-1 7q-1 11-3 6m22-3q0-5 2-4l1 4-1 4q-2 0-2-4m49 3v-31l10-1 11 1q-1 2-9 2h-9l-1 5 1 7v3c-2 1-1 12 1 14q2 1-1 1zm77 0-1-3q-1-3 3-1 3 0 2 2v3h-2zm58 0c-2-1-1-31 0-31q2 1 2 16l-1 16zm258-3q-2-3 1-4c2-1 3-2 3-12l1-12 1 16c0 14 0 16-2 16zm52 3v-31l11-1 10 1q-1 2-9 2h-9v5q-1 5 1 7v3c-2 1-2 12 0 14q2 1-1 1zm238 0-1-15-1-14h-5c-9-1-4-3 7-3 12 0 17 2 7 3h-5v16zm57 0-1-12v-11l3 4q2 3 1 5c-2 2-1 12 1 14q2 1-1 1zm158-2q-5-5 0-5c2-1 3-2 3-12l1-12c2 0 1 31-1 32zm191 0-4-4q-4-1-1-3v-9q-4-14 3 6l4 13q-2 0-2-3m-836-13 1-16 1 16-1 15zm72 11c3-5 3-14 1-19l-1-3c1-1 5 7 5 11q-1 8-6 14-3 2 1-3m48-11q0-24 5-14 5 5 0 5c-2 1-3 2-3 13l-1 11zm504 0 1-16q2-2 5 4 2 3-1 3c-2 1-3 2-3 13l-1 11zm70 0q0-16 2-16l1 16-1 15q-2-1-2-15m51 13q-3-3 0-1l3 2q0 3-3-1m68 0 1-2v2l-1 2zm-765-4-2-10c0-6 1-7 4-11l5-4-3 4c-4 5-5 14-3 19l1 5q-2 0-2-3m233 1-2-6q-2-4 2 0 5 4 1 8zm273-2-2-8 4-12v4c-2 4-2 14 0 18v2zm351 2-1-6v-1q5 3 3 8-3 2-2-1m-952-1-2-5-1-2c2 0 5 5 4 7q-1 3-1 0m789-1c-2-6-1-15 2-19q3-2 1 0t-2 11q0 13-1 8m73-1 3-7 2-4-1 4q-1 4 1 6v2l-4 1q-3 2-1-2m-545-7-3-1zl5 1 3 1h-3zm624 0-3-1zl4 1q3 2 0 2zm-1430-2 1-2v2q0 5-1 0m354 0-1-3q1-2 1 1l1 4zm121 1 3 1h-2q-2 0-1-1m322-2-3-5q1-3 2 0 1 4 4 5 3 2 1 2zm624 0-3-5 2 1 4 4q3 2 1 2zm-956-4 1-4q2-1 2 2 0 6-3 2m-651-5-5-6 7 6 5 6zm537 0-1-4 3 8q-2 0-2-4m20 1q1-5 3-5l-2 5-2 4zm987-2q2-6 5-2 5 3-2 4-4 1-3-2m-335-1q-2-2 10-3l11 1q-1 2-9 2l-11 1q-3 3-1-1m263-2 2-1q1 1-1 2-3 1-1-1m-691-1h4q3 1-2 1t-2-1m-523-5 2-2q3-2 1 1-3 3-3 1m-272-7-4-3zl3 4zm242-3 3-2-2 2-3 3zm-16-7 3-2q3-3 0 0-3 4-3 2m189-1v-83h39c42-1 44 0 51 6q9 7 8 19 0 13-6 19-6 5 0 9 7 5 6 20c-1 11-1 11-4 11s-3 0-3-10q1-16-8-21c-3-1-9-2-39-1h-36l-1 16c0 15 0 16-3 16q-4 1-4-1m85-42c4-4 4-5 5-13q1-10-2-14c-4-8-7-8-46-8l-34 1v36c0 1 8 2 37 2h36zm34 42-1-42 1-41h6v84h-3q-2 1-3-1m42 0q-14-4-18-12c-3-5-3-9-3-28 0-25 1-30 7-36 7-6 17-8 46-8 48 0 53 4 51 48 0 28-2 31-21 36-9 2-52 2-62 0m61-6q6-2 9-5 6-7 5-37c-1-25-3-27-27-29h-33c-19 1-23 3-26 11-2 8-3 31-1 42 3 17 6 19 42 19zm98 5q-9-2-12-5c-2-4-5-13-4-16s7-2 7 2c2 13 7 15 40 15 27 0 34-1 38-6s3-17-1-21-7-5-36-6c-25 0-34-2-40-9-8-8-8-23 0-30 6-6 16-7 40-7 23 0 33 2 39 7 3 3 6 12 5 16-1 2-7 1-7-2q-2-9-8-12c-5-3-52-4-59-1s-10 14-6 22c3 8 9 9 40 10 32 1 37 3 41 11 5 9 2 24-5 29q-8 6-41 6-22-1-31-3m87 2q0-3 11-23l33-61 8-1h7l7 14 35 71q-5 4-10-9l-6-10c-1-1-9-2-35-1h-33l-5 10q-5 10-9 10zm79-30-1-4-24-44c-4-4-7 0-19 23q-11 22-11 26c1 1 4 2 27 2 24 0 27-1 28-3m37 29-1-42 1-41h7l7-1 15 15 64 62c3 0 3 0 3-38l1-38h7v84h-7l-7 1-25-26c-37-38-52-52-54-51-2 0-2 5-2 37l-2 38c-2 2-7 2-7 0m173 0v-83h37c35 0 38 0 43 3q12 4 11 22c0 13-3 18-11 23-5 2-8 3-39 3l-34 1-1 16c-1 14-1 16-3 16q-2 1-3-1m78-42c5-4 5-4 5-16 0-11 0-11-5-15l-4-4h-32q-34-1-34 2-2 2-2 17 0 17 2 18 0 2 34 2h32zm26 42v-83h39c39 0 40 0 40 3 0 2-1 2-36 3l-35 1v30l34 1c33 1 34 1 34 3 0 3-1 3-34 4h-34v31l35 1h36v7h-39c-31 1-40 0-40-1m93 0v-83h42c39 0 41 0 46 3q10 5 13 27c3 20-1 42-9 49-5 4-17 6-55 6-28 0-36-1-37-2m85-9c7-4 8-11 8-35-1-19-1-21-3-25-6-7-9-8-45-8q-34 0-34 2c-2 1-3 66-1 68a377 377 0 0 0 75-2m37 9-1-42 1-41h40c39-1 40-1 46 2q10 5 11 20t-6 21l-4 5 5 7 6 6-1 11c0 12 0 12-3 12-4 0-4 0-4-13-1-12-1-13-4-16-5-4-9-4-45-3h-33l-1 16c-1 15-1 16-4 16q-2 1-3-1m82-40c6-4 8-7 8-17q0-16-11-19l-38-1-33 1-1 17 1 19c1 3 68 2 74 0m51 39c-16-4-19-10-19-41 0-30 3-35 19-40 6-2 13-2 34-2 26 0 35 1 43 6 3 2 8 10 8 15q0 5 2 5c1 1 2 4 2 17s-1 16-2 17q-2 0-2 5-1 9-9 14c-7 5-18 7-43 7-18 0-26-1-33-3m68-7c8-3 9-10 9-34s-1-30-8-32c-6-3-34-4-52-3-26 2-27 4-27 36 0 27 1 32 13 34 10 3 60 2 65-1m-1374 1 4-3-3 3-3 3zm-23-1 1-1 1 1-1 2zm-185-17q-3-3 0 0l3 2q0 2-3-2m-15-14q-2-3 1-1l2 2q0 3-3-1m280-22-1-2zq1 4-1 1m-170-27-12-5c-7-3-16-12-16-14s10-9 13-9q3 0 4 3l9 6c9 4 23 5 29 1q5-5 3-14-2-5-24-11c-21-5-29-11-32-22-2-7 2-19 7-25 10-10 31-13 47-7 8 3 20 11 19 14l-6 6-5 4-10-5q-16-9-25-4-6 3-5 10-1 8 15 12c21 6 28 9 33 14 10 9 11 23 3 34-8 10-31 16-47 12m-111-2-1-33v-31h21v5l2 8c2 2 18 2 24-1q9-3 9-13 0-6-4-10l-3-3-24-1-25-1v-16h23c39-1 52 6 54 27q1 22-16 29l-4 4 6 13 13 23-11 1-11-1-6-9-9-17-4-7h-13l-1 17v17h-9zm174-31v-33h21v15h12c14 1 16 0 20-5q4-8 1-16c-2-8-5-8-31-9l-23-1v-16h26c25 0 26 1 33 4q13 6 16 19 6 21-10 34-8 6-32 8l-12 1v31h-22zm110 22q0-5 1-2v5zm225 1 2-1 2 1q-3 2-4 0m-240-9 1-1v3zm0-45 1-1v2zM15 177q0-7 1-4v9q-1 3-1-5m41 1 2-3q2-2 1 2-2 5-3 1m300-2 1-1 2 2h-2zM57 163l1-1v3zm281-43-3-3zl3 4zM117 83l3-2q3-2 0 1t-3 1m104-24 1-2 1 2-2 1zm33-1h3l-2 1zm-26-19h9q4 1-4 1zm-95-5-3-4zl3 4zm108-8 1-1v3z" style="fill:#cdcdd0"/><path d="M138 402a42 42 0 0 1-.3-9.7l.4-7.8.7 9.6c.6 9.7.5 11.3-.8 7.9m128.6-1.9q-2.6-3 .5-.5 2.1 1.6 2.3 2.4 0 1.5-2.8-1.9m-103.9-4.7q.1-2.5.8-.8.5 1.6 0 2.5-.8.5-.8-1.7m130.8 1q1.6-2.6 2.4-2.3c.3.4-.5 1.7-1.8 3q-3.3 3.4-.6-.7m-64.3-2.7q-2.6-3.1.5-.5 2.1 1.7 2.3 2.3 0 1.6-2.8-1.8m61.5-5c-1.7-1.8-2.9-3.5-2.6-3.8s2 1.2 3.7 3.3c3.8 4.7 3.1 5-1.1.5m-184.7.7q-3.3-1.3-.4-1.3c1.2 0 2.6.5 3 1.3 1 1.5 1 1.5-2.6 0m64.4.4q1.7-.5 2.6 0 .4.8-1.8.8-2.3-.1-.8-.8m5.3-1.3c.9-.4 2.4-.4 3.3 0q1.3.6-1.7.7-2.8 0-1.6-.7m-77.3-1.4q1.7-.5 2.6.1.4.8-1.8.7t-.8-.8m-5.3-1.3q1.7-.5 2.5 0 .6.8-1.7.8-2.4-.1-.8-.8m94.7 0q1.6-.5 2.5 0 .5.8-1.7.8-2.5-.1-.8-.8m-138.5-1.3a16 16 0 0 0 4.5-3.6l2.5-2.9-2 3.4c-1 1.8-3 3.4-4.5 3.6q-2.6.3-.5-.5m188-1c0-.4 1.2-1.3 2.7-2.1s2.7-1.2 2.7-.8-1.2 1.3-2.7 2.1-2.7 1.1-2.7.8m-200-9.8-7.3-7.7 7.7 7.3c4.2 4 7.6 7.5 7.6 7.7 0 1-1.2-.2-8-7.3m168 6.3a8 8 0 0 1 3.4-1.3q1 .1-.7 1.3a8 8 0 0 1-3.3 1.3q-1.1-.1.6-1.3m87.4-4c2.8-2.9 5.5-5.3 5.8-5.3.4 0-1.6 2.4-4.5 5.3-2.9 3-5.5 5.4-5.9 5.4a27 27 0 0 1 4.6-5.4M100 372q-1.7-1.2-.7-1.3a8 8 0 0 1 3.4 1.3q1.7 1.2.6 1.3a8 8 0 0 1-3.3-1.3m-6-2.7q-.7-1.1 1.3-.5 3.5 1.7.8 1.9-1.2-.1-2-1.4m150.1-.5c1.4-1.2 9.2-4.8 9.2-4.2 0 .8-7.4 4.7-8.8 4.7q-.8 0-.4-.5m-61.8-4.5c4.6-.2 12.1-.2 16.7 0s.8.5-8.3.5-13-.2-8.4-.5m101.7.5c0-.2 1-1.3 2.3-2.3q3.1-2.6.5.5-2.7 3.4-2.8 1.8m-119-1.7c1.7-.4 4-.3 5.3 0s0 .6-3 .6c-2.9 0-4-.3-2.3-.6m46.7 0c1.6-.4 4-.3 5.3 0s0 .6-3 .6q-4.7 0-2.3-.6m-53.3-1.3q1.7-.6 2.6 0 .4.8-1.8.8-2.3-.2-.8-.8m64 0q1.7-.6 2.6 0 .5.8-1.8.8-2.3-.2-.8-.8m35 .3q.2-.7 2.6-2.1c1.5-.8 2.7-1.1 2.7-.8s-1.2 1.3-2.7 2.1-2.7 1.2-2.7.8m72-2.8c1.7-1.8 3.4-3.3 3.7-3.3s-.7 1.5-2.4 3.3a16 16 0 0 1-3.8 3.4c-.4 0 .7-1.5 2.4-3.4m-179 1.1q1.7-.5 2.6.1.4.8-1.8.7t-.8-.8m78.7 0q1.7-.5 2.5.1.6.8-1.7.7-2.4-.1-.8-.8m62.2-1.7c1.4-1.5 2.7-2.7 3.1-2.7s-.4 1.2-1.7 2.7a11 11 0 0 1-3.1 2.6c-.4 0 .4-1.2 1.7-2.6m-146.2.4q1.7-.5 2.5 0 .6.8-1.7.8-2.4-.1-.8-.8m-9.3-2.7q1.6-.5 2.5.1.5.8-1.7.7-2.5-.1-.8-.8m160.2-.8c0-.2 4.7-4.8 10.3-10.3l10.4-10-10 10.4c-9.3 9.6-10.7 11-10.7 10m-247.2-6.3c-2.6-3-4.8-6-4.8-7q.2-1.2 1.5 1a47 47 0 0 0 5.6 7c2.3 2.4 3.7 4.4 3.3 4.4s-3-2.4-5.6-5.4m286.5 2.7c1.4-1.5 2.7-2.7 3.1-2.7s-.4 1.2-1.7 2.7a11 11 0 0 1-3.1 2.7c-.4 0 .4-1.2 1.7-2.7m-214 0q-1.7-1.2-.6-1.3a8 8 0 0 1 3.3 1.3q1.7 1.2.7 1.3a8 8 0 0 1-3.4-1.3m150.7.8c0-.2 1-1.3 2.3-2.3q3.1-2.6.5.5-2.7 3.4-2.8 1.8m-6.7-4.1c1.9-1 4-2 4.7-2s-.2 1-2 2-4 1.9-4.7 1.9q-.9-.2 2-2m-157.6-2.8a26 26 0 0 1-6.4-4c0-.5 13.2 5.7 14.6 7 1.6 1.4-2.7-.1-8.2-3m172.9-.3c4.5-5 4-5.3-3.3-1.6-3 1.5-5.3 2.4-5.3 2 0-.6 15.3-8.7 16.6-8.7q3 .2-5.6 7.3c-5.5 4.5-5.8 4.7-2.4 1m82-5.6q-1.6-1.2-.6-1.3a8 8 0 0 1 3.3 1.3q1.7 1.2.7 1.3a8 8 0 0 1-3.3-1.3m5.4-.5q.2-.6 2.3-2.3 3.1-2.6.5.5-2.7 3.4-2.8 1.8m-12-2.2q-1.7-1.2-.7-1.3a8 8 0 0 1 3.4 1.3q1.6 1.2.6 1.3a8 8 0 0 1-3.3-1.3m-312-2.2c0-.8 1-2.3 2.3-3.3q3.2-2.7.4.9l-2.3 3.2q-.4.4-.4-.8m304.4 0c1.3-.4 3-.3 4 0 .9.4-.2.7-2.4.6q-3.5 0-1.6-.6m-28.4-5.8c2.3-2.9 4.5-5.3 4.9-5.3s-1.2 2.4-3.6 5.3c-2.3 3-4.5 5.4-4.9 5.4-.3 0 1.3-2.4 3.6-5.4m-214.2-1.8a186 186 0 0 1-60.5-55.9c-4.5-7-8.2-11.5-9.7-11.5-1.3 0-4.7 1.4-7.6 3.2a22 22 0 0 1-7.3 3.4c-4 0-15.4-18.9-17.3-28.7-.5-2.2.6-.2 2.4 4.5 3.9 9.9 12.4 22.8 15 22.8 1 0 4.3-1.5 7.2-3.3s6.3-3.3 7.7-3.3q2.5.2 10.3 12.2c13.4 20.4 39.7 45 58.7 54.7 4.6 2.4 3.4.8-8.8-11.8-27.4-28.4-44-60-51.4-97.4-2.6-13.2-3-54.8-.7-63 1-3.8 1.2-3 .4 4a284 284 0 0 0 1.6 59 189 189 0 0 0 67 111.2c3 2 4.3 4.4 2.2 4.4-.5 0-4.7-2-9.2-4.5m-26 .8q-2.5-3 .5-.5c1.3 1 2.4 2 2.4 2.4q-.1 1.5-2.9-1.9m297.8-3.6c1.6-3.3 3.1-5.7 3.4-5.5a34 34 0 0 1-5.7 11.5c-.3 0 .7-2.7 2.3-6m-303.7-1-2.6-3 3 2.5q4.2 3.5 2.6 3.5c-.3 0-1.6-1.4-3-3m-8.2-6.6c-4.2-4.3-4.3-4.3-7.3-1.7l-3 2.5 3-3.3 3-3.2 5 5c2.7 2.7 4.6 5 4.2 5s-2.6-2-5-4.3M332 312c.8-1.5 1.7-2.7 2-2.7.5 0 .1 1.2-.7 2.7s-1.7 2.7-2 2.7 0-1.2.7-2.7m5.3-9.3c1.5-3 3-5.4 3.4-5.4s-.5 2.4-2 5.4c-1.5 2.9-3 5.3-3.4 5.3s.5-2.4 2-5.3m46.8 3.2q.1-2.4.8-.8.5 1.7 0 2.5-.8.6-.8-1.7m1.5-9.5c-.2-4-1-7.1-2-7.5q-1.8-.7.1-.8c2.4-.1 3.2 2.7 2.6 9.4l-.5 5.8zm-44.2-1c0-.8.9-2.9 2-4.7q1.6-3 1.8-2c0 .7-.8 2.8-1.9 4.6q-1.7 3-1.9 2m34.3-8.3c.9-.4 2.4-.4 3.3 0q1.3.6-1.7.7-2.8 0-1.6-.7m-7-1.6q-.4-1.1 2-.6c3 .9 3.5 1.8.7 1.8a4 4 0 0 1-2.7-1.2m-.6-6.3q.1-2.3.8-.8.5 1.7 0 2.6-.8.5-.8-1.8m-20 .1a8 8 0 0 1 1.2-3.3q1.2-1.7 1.3-.7a8 8 0 0 1-1.3 3.4q-1.2 1.6-1.3.6m21.5-8.6q0-4 .7-2.4a11 11 0 0 1 0 4.7c-.4 1.3-.7.2-.7-2.3m-18.8.5q.1-2.3.8-.8.5 1.7-.1 2.6-.8.5-.7-1.8m2.6-9.3q.2-2.4.8-.8.6 1.7 0 2.5-.8.6-.8-1.7m17.7-4.6c0-4 .2-5.6.5-3.6s.3 5.3 0 7.3-.5.4-.5-3.7m-16.3-.7q.1-2.5.8-.8.5 1.6-.1 2.5-.8.5-.7-1.7m1.4-6q0-2.8.7-1.6c.4 1 .4 2.4 0 3.3q-.7 1.3-.7-1.6m1.3-8q0-2.8.7-1.6c.4 1 .4 2.4 0 3.3q-.6 1.3-.7-1.6m13.6-8c0-4 .2-5.6.5-3.6s.3 5.3 0 7.3-.5.4-.5-3.6m-12-4c0-3.2.2-4.6.5-3a19 19 0 0 1 0 6c-.3 1.7-.6.4-.6-3m10.5-9.3c0-2.5.3-3.6.7-2.3a11 11 0 0 1 0 4.7c-.4 1.3-.7.2-.7-2.4m-9.2-6c0-4.4.3-6 .6-3.6s.3 6 0 8c-.4 2-.6 0-.6-4.4m24.4 3c-.3-.9-1.5-6.6-2.7-12.8a188 188 0 0 0-32.3-71.8 147 147 0 0 0-30-31.6 180 180 0 0 0-57.1-32.9c-5.5-2-9.1-3.8-8-3.8 3.4 0 29.5 11.1 39.6 17a189 189 0 0 1 89.2 123.1 72 72 0 0 0 3.2 12.2c.5.6 5.8-.5 11.9-2.4a55 55 0 0 1 11.5-3c.6.6-21.7 7.8-23.8 7.7q-1-.1-1.5-1.7M9.3 212c4-1.6 7.7-3.5 8.1-4.2.5-.6.4-4-.2-7.4s-1-9-1-12.3c.1-5 .3-4.7 1.2 2.7 1.3 11 1.6 14.9 1.4 17-.1 1.7-7.5 5.2-13.4 6.4-1.9.4-.1-.6 4-2.2m358.8.7q.1-2.5.8-.8.5 1.6 0 2.5-.8.5-.8-1.7m45.7-3c1.6-1.9 2.2-5 2.2-12.7 0-12.3-2.5-37.2-4-38.7-.5-.6-3.2-.1-6 1-7.9 3.3-9.2 2.8-12.8-4.8-3.8-8.1-16-26.8-20.9-32-1.9-2-3.2-4-2.9-4.3 1.1-1 14 16.4 20.2 27.5l7.5 13c1 1.8 2 1.8 7.4-.2 3.4-1.3 7-2 8-1.6q1.8.6 3.3 15.7c2.2 21.7 2 34.8-.6 37.4-2.9 3-4.1 2.6-1.4-.3m-47-3q.1-2.8.7-1.6c.4 1 .4 2.4 0 3.3q-.5 1.3-.6-1.6m-7.8-6c0-2.9.3-4 .6-2.3s.3 4.1 0 5.4c-.4 1.3-.6-.1-.6-3m-1.4-13.3q0-3.5.7-1.6a9 9 0 0 1 0 4c-.5.9-.7-.2-.7-2.4m2-4q-1-2-2.3-1.3t-1.3-2c0-1.4.5-2.7 1.1-2.7 1.3 0 4.6 6.7 3.8 7.6q-.6.3-1.4-1.6M57.5 170c0-3 .3-4.3.7-3q.6 2 1.8 1.6c1.9-1.2 1.5 1.2-.7 4.1-1.8 2.5-2 2.3-1.9-2.7M15 162.8l.2-7.3-6.6-1.7-6.7-1.7 6 .8c3.3.4 6.8 1.3 7.7 2 1.8 1.6 2 6.6.3 11.8q-1.1 3.8-.9-4m43.8-5.5q0-2.9.6-1.6c.4.9.4 2.4 0 3.3q-.5 1.3-.6-1.7m1.3-6.6q0-3 .7-1.7c.4 1 .4 2.4 0 3.3-.4 1-.7.2-.7-1.6m6.6.6c0-.7 1.1-3.4 2.5-6 1.4-2.5 2.6-4 2.6-3.3s-1.2 3.4-2.6 6-2.5 4-2.5 3.3m-20.9-7.9c.4-2.9 2.6-11.1 5-18.3a58 58 0 0 0 3.4-13.9c-1.2-1.2-21.5-5.8-25.9-5.9-5.2 0-6.6 2-17 23.7-4.4 9-8 16-8.3 15.8-.8-.7 16.5-35.5 19-38.3 3-3.2 7.3-3.2 22 .3 13.2 3.2 13.3 3.3 9.7 13.2-1.2 3.3-3.6 11.1-5.4 17.3-1.7 6.3-2.9 9-2.5 6.1M74 136c1.1-2.2 2.4-4 2.7-4s-.2 1.8-1.4 4-2.3 4-2.7 4 .3-1.8 1.4-4m-7.3-8.7A8 8 0 0 1 68 124q1.2-1.7 1.3-.7a8 8 0 0 1-1.3 3.4q-1.2 1.6-1.3.6m13.3-2c.8-1.4 1.7-2.6 2-2.6.5 0 .1 1.2-.7 2.6s-1.7 2.7-2 2.7 0-1.2.7-2.7m5.3-8c1.6-2.2 3.2-4 3.5-4 .4 0-.6 1.8-2.1 4-1.6 2.2-3.2 4-3.5 4-.4 0 .6-1.8 2.1-4m284-2c0-.8 2.4-4.3 5.4-7.8l5.3-6.5-3-5.3c-5.7-10.1-25.3-25.2-35.5-27.2-3.4-.7-4.1-.1-8 6.7-2.3 4.1-4.8 7.5-5.5 7.5s-6.5-2.6-13-5.8l-15-7.3-3.3-1.6 3.3.8c1.8.5 8.6 3.5 15 6.7s12.2 5.8 12.8 5.8a24 24 0 0 0 5-7c2.2-3.8 5-7.2 6.3-7.4 7.4-1.4 32.7 17.2 39.3 28.9l3 5.4-3.8 4.4a108 108 0 0 0-6 7.7q-2.1 2.9-2.3 2m-276.3-8c2.3-2.9 9.4-10.4 15.9-16.6 10.8-10.6 10.6-10.3-2.9 4-18.4 19.4-17.9 19-13 12.6m-18.3.8q.1-1.2 1.3-2 1.2-.7.5 1.2c-.9 2.3-1.8 2.7-1.8.8m10.2-17.5c1.3-2.3 3.3-4.8 4.3-5.7s.2 1-1.8 4.1c-4.3 6.5-6 7.6-2.5 1.6m5.8-8.4c0-.3 1-1.4 2.3-2.4q3.1-2.5.5.5-2.7 3.5-2.8 1.9m30.6-2.7q.1-.6 2.4-2.3 3-2.6.5.5-2.8 3.4-2.9 1.8m-25.8-4.1c.5-1.2-.3-3.5-1.7-5.1l-2.5-3 3 2.6c3.2 2.7 3.9 5.4 1.7 6.8q-1.1.6-.5-1.3m31.2.1q.2-.6 2.3-2.3 3.1-2.6.5.5-2.7 3.4-2.8 1.8m9.3-6.7c0-.4 1.2-1.3 2.7-2.1 1.4-.8 2.6-1.2 2.6-.8s-1.2 1.3-2.6 2.1-2.7 1.1-2.7.8m-48.2-3.1q-2.5-3.1.5-.5 3.5 2.7 1.9 2.8c-.3 0-1.4-1-2.4-2.3m195.5-1c-5.8-1.8-9.7-3.2-8.6-3.3 2.3 0 20 4.8 21 5.9 1.2 1.1-1 .7-12.4-2.7m-34.2-.3q1.7-.6 2.5.1.6.8-1.7.7-2.4-.1-.8-.8M233 61.7c-5.7-1-10.3-2.6-10.3-3.4 0-1.7 38.3-.3 45.3 1.7l4.7 1.3-5.4-.7c-2.9-.4-12.5-1-21.3-1.3-16-.6-16.2-.4-3 3.2 6.6 1.9 1.5 1.5-10-.8m-149-3c0-.6.6-1.6 1.3-2q1.2-.7.5 1.2c-.8 2.3-1.8 2.8-1.8.8m76-3.2c0-.3 1-1 2-1.3q2-.7 1.3.5c-.8 1.2-3.3 1.9-3.3.8m-72.1-3.3c.7-1.3 2.3-3.3 3.6-4.3q2.1-1.6-.8 2.4c-3.5 4.8-4.8 5.7-2.8 2m9.4-11.5a29 29 0 0 1 5.2-4.7c.4 0-1.3 2.1-3.8 4.7a29 29 0 0 1-5.2 4.6c-.4 0 1.3-2 3.8-4.6m97.1 2.4q1.7-.5 2.6 0 .5.8-1.8.8-2.3-.1-.8-.8m6.7-1.3q1.7-.6 2.5 0 .6.8-1.7.8-2.4-.2-.8-.8m7.3-1.4a9 9 0 0 1 4 0c.9.4-.2.7-2.4.7s-3-.4-1.6-.7m9.3-1.3a11 11 0 0 1 4.6 0q1.8.5-2.3.6t-2.3-.6M133.2 35l-3.2-3.7 3.7 3.3 3.7 3.2 6-2.9c7.3-3.5 8-2.6.7 1-6.8 3.5-7 3.5-10.9-.9m108.9 2q.9-2.2 1.6-1.7c.5.4 0 1.5-.9 2.4q-1.9 2-.7-.8M104 35.4q.2-.6 2.3-2.3 3.1-2.6.5.5-2.7 3.4-2.8 1.8m47.6-5q1.7-1.5 2.4-1 .5.8-1.6 1.7-2.8 1.2-.8-.7m89.8-.6q.2-2.4.8-.8c.4 1 .4 2.1 0 2.5q-.8.6-.8-1.7m-114.2-2.2-2.5-3 3 2.5q4.2 3.6 2.5 3.5c-.2 0-1.6-1.4-3-3m29.8.1c.9-.9 2-1.3 2.4-.9q.4.8-1.7 1.7-2.7 1.2-.7-.8m12.3-5.1a8 8 0 0 1 3.4-1.3q1 .1-.7 1.3a8 8 0 0 1-3.3 1.3q-1.1-.1.6-1.3m71-2q0-3.5.6-1.7c.4 1.3.3 3.1 0 4-.4 1-.7-.1-.6-2.3M182.7 18q.2-.4 2-1.3 2-.6 1.3.5c-.8 1.3-3.3 2-3.3.8m2.7-5.5q.2-2.5.8-.8t0 2.5q-.8.5-.8-1.7m53.4 0q.1-2.5.8-.8.6 1.6-.1 2.5-.8.5-.7-1.7M184.3 6q0-3.5.6-1.6c.4 1.3.3 3 0 4-.4.9-.7-.2-.6-2.4m49-.7q-1.7-1.2-.6-1.3a8 8 0 0 1 3.3 1.3q1.7 1.2.7 1.3a8 8 0 0 1-3.4-1.3M221 3.1a19 19 0 0 1 6 0c1.7.3.3.5-3 .5s-4.6-.2-3-.5" style="fill:#aeadb3"/><path d="m148 407-6-3q-4 0-3-10l-2-10-13-5c-6-1-17-5-23-8l-13-4-5 5-5 5c-2 0-16-14-27-27-8-9-8-11 0-23l8-12q1-3 12 6a183 183 0 0 0 86 41l6 2-6-1a189 189 0 0 1-96-48l-8 11q-9 12-7 15c1 3 29 35 32 35q2 0 4-5 3-5 6-6l13 5a190 190 0 0 0 38 12l1 11v9l7 2 6 3zm31 0q0-2 5-2 10 0 6-11-2-12 4-11h4l-3 1q-5 0-3 14 3 6-5 7c-7 3-7 3-8 2m85-11-7-13 6-5a190 190 0 0 0 97-146l1-10v10a184 184 0 0 1-93 145l-11 7 8 10 9 12v1zm18 11q1-2 19-9l20-9-2-4c-7-10-7-9-1-15q13-13 23-28c6-10 7-10 18-6l7 3 3-3q7-7 13-24l1-3c-1 6-10 26-14 29-2 2-2 2-10 0l-9-3q-3 1-7 6c-4 7-21 28-25 31q-5 5 2 11 4 4 2 6l-19 9zm-79-26 16-5c15-4 33-12 46-20q19-13 6-8a194 194 0 0 1-100 18q-10-1 18-1c21 0 27-1 39-3q26-6 47-17l11-5-4 4a171 171 0 0 1-78 38q-9 0-1-1m181-84c-1-7-1-7-5-8q-4-1 0-1 7-1 6 9v8zm-16-10v-11l1-9v10q-1 10 3 10 4 1 1 1zm2-26v-3 6zm1-15q0-5 1-2v5q-1 1-1-3m-1-13v-4 8zm-2-12-3-15q-4-19-5-12l-1-5-1-8c2-2 12 34 11 40l-1 4zm-8-18q0-6 1-3v6zM59 167a167 167 0 0 1 30-80l8-14-5-5-7-6c-2-4 12-22 25-30 12-8 13-8 21 0l6 7 12-6 25-11 12-4v-8q0-11 1-3c2 11 2 11-11 16l-26 11-13 7-6-8c-7-7-7-7-11-5-8 3-21 13-26 20-10 13-10 13-2 18l7 7-6 10c-15 20-29 51-31 71l-1 7 3-8A190 190 0 0 1 213 39l-7 2q-39 7-73 29c-14 10-35 31-45 44-9 13-20 33-24 45q-5 15-5 8M229 38l11-2-1-13c-2-15-4-18-12-18q-6 0-1-1c4 0 11 2 12 5 1 4 5 27 4 28q-1 2-12 1h-12zM204 3c0-2 9-2 13 0l-5 1z" style="fill:#3b9060"/><path d="M101 323c-21-12-42-32-55-52q-8-12-10-12l-8 3-7 3c-3 0-12-14-15-23q-2-6-4-7l-1-10v-9l8-3q14-3 9-13l-1-25-1-20-8-2-7-3 22-43 5-2c5 0 25 5 26 6q1 3-3 14c-7 21-9 33-9 58a187 187 0 0 0 54 131l13 14zm285-106-3-12A188 188 0 0 0 249 64q-29-6-3-5 37 2 69 18l13 6 6-8q4-9 7-7c11 3 30 18 36 28l3 5-5 6q-9 11-3 15c4 3 16 23 21 32 4 8 5 9 13 5l6-1c1 2 4 27 4 39q1 11-2 13l-24 8q-3 1-4-1" style="fill:#0f4191"/><path d="m156 408-3-1-6-3-7-2v-9l-1-11-14-4-24-8-13-5q-3 1-6 6-2 5-4 5c-3 0-31-32-32-35q-2-3 7-15l8-11 8 6a191 191 0 0 0 159 42c15-4 33-10 43-15q13-5-6 7a188 188 0 0 1-74 28q-3 2 0 12t-7 10q-5 0-5 2c2 2-12 3-23 1m118-1v-2l-9-11-8-10 11-7q72-44 90-125c2-9 3-17 3-36l1-23a170 170 0 0 1 5 87c-1 7-2 7 11 9q6 0 6 7c0 11-8 33-15 40l-3 3-7-3c-11-4-12-4-18 6q-10 15-23 28c-6 6-6 5 1 15l2 4-20 9q-18 7-19 9 1 1-4 1zM62 154c2-20 16-51 31-71l6-10-7-7c-8-5-8-5 2-18 5-7 18-17 26-20 4-2 4-2 11 5l6 8 13-7 26-11 12-5-1-7-2-8V1c2-1 19 0 19 2l8 1q19 0 23 4c2 2 7 26 6 28l-16 2q-36 1-70 18c-23 12-38 24-57 44q-20 22-34 53l-3 8z" style="fill:#027532"/></g></svg>
