<svg xmlns="http://www.w3.org/2000/svg" width="290" height="68" viewBox="0 0 290 68">
<g transform="translate(34,34)">
<rect transform="rotate(191.25) translate(30,0)" x="-2.5" y="-3" width="5" height="6" fill="#1F7A33"/>
<rect transform="rotate(213.75) translate(30,0)" x="-2.5" y="-3" width="5" height="6" fill="#1F7A33"/>
<rect transform="rotate(236.25) translate(30,0)" x="-2.5" y="-3" width="5" height="6" fill="#1F7A33"/>
<rect transform="rotate(258.75) translate(30,0)" x="-2.5" y="-3" width="5" height="6" fill="#1F7A33"/>
<rect transform="rotate(281.25) translate(30,0)" x="-2.5" y="-3" width="5" height="6" fill="#1F7A33"/>
<rect transform="rotate(303.75) translate(30,0)" x="-2.5" y="-3" width="5" height="6" fill="#1F7A33"/>
<rect transform="rotate(326.25) translate(30,0)" x="-2.5" y="-3" width="5" height="6" fill="#1F7A33"/>
<rect transform="rotate(348.75) translate(30,0)" x="-2.5" y="-3" width="5" height="6" fill="#1F7A33"/>
<rect transform="rotate(11.25) translate(30,0)" x="-2.5" y="-3" width="5" height="6" fill="#0F3D6B"/>
<rect transform="rotate(33.75) translate(30,0)" x="-2.5" y="-3" width="5" height="6" fill="#0F3D6B"/>
<rect transform="rotate(56.25) translate(30,0)" x="-2.5" y="-3" width="5" height="6" fill="#0F3D6B"/>
<rect transform="rotate(78.75) translate(30,0)" x="-2.5" y="-3" width="5" height="6" fill="#0F3D6B"/>
<rect transform="rotate(101.25) translate(30,0)" x="-2.5" y="-3" width="5" height="6" fill="#0F3D6B"/>
<rect transform="rotate(123.75) translate(30,0)" x="-2.5" y="-3" width="5" height="6" fill="#0F3D6B"/>
<rect transform="rotate(146.25) translate(30,0)" x="-2.5" y="-3" width="5" height="6" fill="#0F3D6B"/>
<rect transform="rotate(168.75) translate(30,0)" x="-2.5" y="-3" width="5" height="6" fill="#0F3D6B"/>
<path d="M -27 0 A 27 27 0 0 1 27 0" fill="none" stroke="#1F7A33" stroke-width="6"/>
<path d="M 27 0 A 27 27 0 0 1 -27 0" fill="none" stroke="#0F3D6B" stroke-width="6"/>
<circle r="22" fill="#FFFFFF"/>
<text text-anchor="middle" y="5" font-family="Arial,Helvetica,sans-serif" font-weight="500" font-size="16" fill="#1F2937">RSP</text>
</g>
<g transform="translate(80,34)">
<text y="-2" font-family="Arial,Helvetica,sans-serif" font-weight="500" font-size="22" fill="#1F2937" letter-spacing="1.5">RÍO SAN PEDRO</text>
<rect x="0" y="5" width="22" height="2" fill="#1F7A33"/>
<rect x="25" y="5" width="10" height="2" fill="#0F3D6B"/>
<text y="22" font-family="Arial,Helvetica,sans-serif" font-weight="500" font-size="10" fill="#374151" letter-spacing="2.8">REVISIONES TÉCNICAS</text>
</g>
</svg>
